<svg xmlns="http://www.w3.org/2000/svg" version="1.1" xmlns:xlink="http://www.w3.org/1999/xlink" xmlns:svgjs="http://svgjs.dev/svgjs" width="1500" height="1500" viewBox="0 0 1500 1500"><rect width="1500" height="1500" fill="#fffff5"></rect><g transform="matrix(0.6666666666666666,0,0,0.6666666666666666,249.41352005488812,670.0556636188544)"><svg viewBox="0 0 404 64" data-background-color="#fffff5" preserveAspectRatio="xMidYMid meet" height="237" width="1500" xmlns="http://www.w3.org/2000/svg" xmlns:xlink="http://www.w3.org/1999/xlink"><g id="tight-bounds" transform="matrix(1,0,0,1,0.23693789782521435,0.38251600248935347)"><svg viewBox="0 0 395.52 63.23496799502132" height="63.23496799502132" width="395.52"><g><svg viewBox="0 0 414.42273196158294 66.2571" height="63.23496799502132" width="395.52"><g><svg viewBox="0 0 414.42273196158294 66.2571" height="66.2571" width="414.42273196158294"><g id="textblocktransform"><svg viewBox="0 0 414.42273196158294 66.2571" height="66.2571" width="414.42273196158294" id="textblock"><g><svg viewBox="0 0 414.42273196158294 66.2571" height="66.2571" width="414.42273196158294"><g><svg><g></g><g></g></svg></g><g><svg><g><svg></svg></g><g></g></svg></g><g id="text-0"><svg viewBox="0 0 414.42273196158294 66.2571" height="66.2571" width="414.42273196158294"><g transform="matrix(1,0,0,1,0,0)"><svg width="332.2562999999999" viewBox="3 -32.1 205.33 40.95" height="66.2571" data-palette-color="#ffffff"><path d="M11-7.25L26-7.25 26-0.45 3-0.45 3-32.1 11-32.1 11-7.25ZM38.75-25.05L38.75-25.05Q43.55-25.05 46.5-24.05 49.45-23.05 50.82-20.38 52.2-17.7 52.2-12.65L52.2-12.65 52.2-0.45 44.95-0.45 44.7-2.75 44.55-2.75Q43.6-1.5 41.6-0.75 39.6 0 36.4 0L36.4 0Q27.75 0 27.75-8.1L27.75-8.1Q27.75-11.55 30.02-13.53 32.3-15.5 37.2-15.5L37.2-15.5 44.6-15.5Q44.25-17.6 42.8-18.32 41.35-19.05 37.85-19.05L37.85-19.05Q35.65-19.05 33.52-18.73 31.4-18.4 29.8-18L29.8-18 29.65-18.1 29.7-23.9Q30.7-24.2 32.25-24.48 33.8-24.75 35.52-24.9 37.25-25.05 38.75-25.05ZM38.45-5.9L38.45-5.9Q41.55-5.9 43.1-6.68 44.65-7.45 44.7-9.15L44.7-9.15 44.7-10.4 39.05-10.4Q36.85-10.4 35.97-9.78 35.1-9.15 35.1-8.1L35.1-8.1Q35.1-6.85 36-6.38 36.9-5.9 38.45-5.9ZM65.55-9.25L65.45-0.45 57.45-0.45 57.45-24.8 63.95-24.8 64.6-19.8 64.75-19.8Q65.2-22.6 66.9-23.83 68.6-25.05 71.95-25.05L71.95-25.05Q73.3-25.05 74.4-24.93 75.5-24.8 76.25-24.7L76.25-24.7 76.25-16.9 76.15-16.8Q75.35-17 74.32-17.15 73.3-17.3 72-17.3L72-17.3Q70.15-17.3 68.67-16.7 67.2-16.1 66.37-14.38 65.55-12.65 65.55-9.25L65.55-9.25 65.55-9.25ZM88.99-25.05L88.99-25.05Q93.79-25.05 96.74-24.05 99.69-23.05 101.07-20.38 102.44-17.7 102.44-12.65L102.44-12.65 102.44-0.45 95.19-0.45 94.94-2.75 94.79-2.75Q93.84-1.5 91.84-0.75 89.84 0 86.64 0L86.64 0Q77.99 0 77.99-8.1L77.99-8.1Q77.99-11.55 80.27-13.53 82.54-15.5 87.44-15.5L87.44-15.5 94.84-15.5Q94.49-17.6 93.04-18.32 91.59-19.05 88.09-19.05L88.09-19.05Q85.89-19.05 83.77-18.73 81.64-18.4 80.04-18L80.04-18 79.89-18.1 79.94-23.9Q80.94-24.2 82.49-24.48 84.04-24.75 85.77-24.9 87.49-25.05 88.99-25.05ZM88.69-5.9L88.69-5.9Q91.79-5.9 93.34-6.68 94.89-7.45 94.94-9.15L94.94-9.15 94.94-10.4 89.29-10.4Q87.09-10.4 86.22-9.78 85.34-9.15 85.34-8.1L85.34-8.1Q85.34-6.85 86.24-6.38 87.14-5.9 88.69-5.9ZM122.19-0.45L114.19-0.45 114.19-25.35 105.19-25.35 105.19-32.1 131.19-32.1 131.19-25.35 122.19-25.35 122.19-0.45ZM132.94-12.45L132.94-12.45Q132.94-19.15 135.79-22.1 138.64-25.05 145.44-25.05L145.44-25.05Q149.99-25.05 152.74-23.75 155.49-22.45 156.71-19.68 157.94-16.9 157.94-12.45L157.94-12.45Q157.94-8.05 156.71-5.3 155.49-2.55 152.74-1.28 149.99 0 145.44 0L145.44 0Q138.64 0 135.79-2.93 132.94-5.85 132.94-12.45ZM145.44-6.85L145.44-6.85Q148.34-6.85 149.36-8.13 150.39-9.4 150.39-12.6L150.39-12.6Q150.39-15.65 149.36-16.98 148.34-18.3 145.44-18.3L145.44-18.3Q142.64-18.3 141.56-16.98 140.49-15.65 140.49-12.6L140.49-12.6Q140.49-9.4 141.56-8.13 142.64-6.85 145.44-6.85ZM170.28-9.25L170.19-0.45 162.19-0.45 162.19-24.8 168.69-24.8 169.34-19.8 169.49-19.8Q169.94-22.6 171.63-23.83 173.34-25.05 176.69-25.05L176.69-25.05Q178.03-25.05 179.13-24.93 180.24-24.8 180.99-24.7L180.99-24.7 180.99-16.9 180.88-16.8Q180.09-17 179.06-17.15 178.03-17.3 176.74-17.3L176.74-17.3Q174.88-17.3 173.41-16.7 171.94-16.1 171.11-14.38 170.28-12.65 170.28-9.25L170.28-9.25 170.28-9.25ZM187.28 8.85L187.28 8.75 191.13-0.4 181.48-24.7 181.48-24.8 190.43-24.8Q191.83-20.85 193.06-16.85 194.28-12.85 195.03-8.65L195.03-8.65 195.13-8.65Q195.88-12.8 197.06-16.8 198.23-20.8 199.73-24.8L199.73-24.8 208.33-24.8 208.33-24.65 195.48 8.85 187.28 8.85Z" opacity="1" transform="matrix(1,0,0,1,0,0)" fill="#ffffff" class="wordmark-text-0" data-fill-palette-color="primary"></path></svg></g><g><svg xmlns="http://www.w3.org/2000/svg" xmlns:xlink="http://www.w3.org/1999/xlink" version="1.1" x="347.8991999999999" y="0" viewBox="-0.0010000000000012221 0.3226718163678406 99.959 99.55865636726475" enable-background="new 0 0 100 100" xml:space="preserve" id="dxe-0" width="66.52353196158305" height="66.2571" class="icon-dxe-0" data-fill-palette-color="accent"><g fill="#dad602" data-fill-palette-color="accent"><circle cx="49.98" cy="50.02" r="8.3" fill="#dad602" data-fill-palette-color="accent"></circle><path d="M57.492 7.246C57.492 11.135 54.34 33.65 50.451 33.65 46.563 33.65 43.41 11.134 43.41 7.246A7.042 7.042 0 0 1 57.492 7.246" fill="#dad602" data-fill-palette-color="accent"></path><path d="M43.41 92.958C43.41 89.069 46.563 66.555 50.451 66.555S57.492 89.07 57.492 92.958A7.042 7.042 0 0 1 43.41 92.958" fill="#dad602" data-fill-palette-color="accent"></path><path d="M85.757 24.872C82.966 27.579 64.615 41.003 61.908 38.213S73.156 17.477 75.946 14.768A7.04 7.04 0 0 1 85.902 14.916 7.04 7.04 0 0 1 85.757 24.872" fill="#dad602" data-fill-palette-color="accent"></path><path d="M14.773 75.181C17.563 72.473 35.913 59.052 38.622 61.839 41.329 64.631 27.373 82.575 24.583 85.284A7.037 7.037 0 0 1 14.628 85.138 7.043 7.043 0 0 1 14.773 75.181" fill="#dad602" data-fill-palette-color="accent"></path><path d="M74.163 86.315C71.533 83.449 58.615 64.741 61.478 62.108 64.342 59.479 81.9 73.92 84.53 76.785A7.04 7.04 0 0 1 84.114 86.732 7.044 7.044 0 0 1 74.163 86.315" fill="#dad602" data-fill-palette-color="accent"></path><path d="M24.717 14.668C27.433 17.449 40.906 35.762 38.124 38.477 35.343 41.194 17.357 27.289 14.641 24.504A7.041 7.041 0 1 1 24.717 14.668" fill="#dad602" data-fill-palette-color="accent"></path><path d="M7.041 42.756C10.931 42.756 33.444 45.91 33.444 49.798S10.93 56.84 7.041 56.84A7.042 7.042 0 0 1 7.041 42.756" fill="#dad602" data-fill-palette-color="accent"></path><path d="M92.918 57.059C89.029 57.059 66.516 53.909 66.516 50.02S89.03 42.979 92.918 42.979A7.04 7.04 0 1 1 92.918 57.059" fill="#dad602" data-fill-palette-color="accent"></path></g></svg></g></svg></g></svg></g></svg></g></svg></g></svg></g><defs></defs></svg><rect width="395.52" height="63.23496799502132" fill="none" stroke="none" visibility="hidden"></rect></g></svg></g></svg>